<svg xmlns="http://www.w3.org/2000/svg" width="39" height="40" fill="none" viewBox="0 0 39 40">
    <path fill="#99cc00" d="M0 0H39V40H0z"/>
    <path fill="#fff" fill-rule="evenodd" d="M15.183 17.203c.117-.125.276-.195.441-.195.166 0 .325.07.442.195l3.93 4.19 3.93-4.19c.058-.063.127-.114.203-.149.076-.035.158-.053.241-.054.083 0 .165.016.242.05.077.033.146.082.205.145.059.063.105.137.136.219.032.081.048.17.047.258 0 .088-.018.175-.05.256-.033.082-.081.155-.14.217l-4.372 4.66c-.117.125-.276.195-.442.195-.165 0-.324-.07-.441-.195l-4.372-4.66c-.117-.125-.183-.294-.183-.471s.066-.346.183-.47z" clip-rule="evenodd"/>
</svg>
