<svg xmlns="http://www.w3.org/2000/svg" width="20" height="20" fill="none" viewBox="0 0 20 20">
    <path stroke="#82C836" stroke-linecap="round" stroke-linejoin="round" stroke-width="2" d="M16.667 7.5h-7.5c-.92 0-1.667.746-1.667 1.667v7.5c0 .92.746 1.666 1.667 1.666h7.5c.92 0 1.666-.746 1.666-1.666v-7.5c0-.92-.746-1.667-1.666-1.667z"/>
    <path stroke="#82C836" stroke-linecap="round" stroke-linejoin="round" stroke-width="2" d="M4.167 12.5h-.834c-.442 0-.866-.176-1.178-.488-.313-.313-.488-.737-.488-1.179v-7.5c0-.442.175-.866.488-1.178.312-.313.736-.488 1.178-.488h7.5c.442 0 .866.175 1.179.488.313.312.488.736.488 1.178v.834"/>
</svg>
