<svg xmlns="http://www.w3.org/2000/svg" width="16" height="16" fill="none" viewBox="0 0 16 16">
    <path fill="#fff" fill-rule="evenodd" d="M10.5 5c0 .663-.263 1.299-.732 1.768-.47.469-1.105.732-1.768.732s-1.299-.263-1.768-.732C5.763 6.298 5.5 5.663 5.5 5s.263-1.299.732-1.768C6.702 2.763 7.337 2.5 8 2.5s1.299.263 1.768.732c.469.47.732 1.105.732 1.768zm.061 3.073c.631-.526 1.085-1.234 1.3-2.028.214-.793.18-1.634-.1-2.406-.28-.773-.792-1.441-1.465-1.913S8.821 1.001 8 1.001c-.822 0-1.624.253-2.297.725s-1.185 1.14-1.464 1.913c-.28.772-.315 1.613-.1 2.406.214.794.668 1.502 1.299 2.028-.984.465-1.824 1.19-2.428 2.095-.604.906-.951 1.96-1.003 3.047-.005.196.067.386.2.53.134.143.319.229.515.238.196.009.387-.06.534-.19.146-.13.236-.312.249-.508.055-1.155.552-2.246 1.389-3.044S6.844 8.997 8 8.997c1.157 0 2.27.446 3.106 1.244.837.798 1.335 1.889 1.389 3.044.003.1.025.198.066.29.04.09.1.172.173.24.073.069.159.121.252.156.094.034.194.05.294.045.1-.005.197-.03.288-.072.09-.044.17-.104.237-.179.066-.074.117-.161.15-.256.032-.094.045-.194.038-.294-.052-1.088-.399-2.14-1.003-3.047-.605-.905-1.444-1.63-2.429-2.095z" clip-rule="evenodd"/>
</svg>
