<svg xmlns="http://www.w3.org/2000/svg" width="16" height="16" fill="none" viewBox="0 0 16 16">
    <path fill="#fff" d="M12.667 3.667H8.48L8.267 3c-.139-.391-.395-.73-.734-.969-.34-.238-.745-.366-1.16-.364h-3.04c-.53 0-1.039.21-1.414.585-.375.376-.586.884-.586 1.415v8.666c0 .53.211 1.04.586 1.415s.884.585 1.414.585h9.334c.53 0 1.039-.21 1.414-.585s.586-.884.586-1.415V5.667c0-.53-.211-1.04-.586-1.415s-.884-.585-1.414-.585zm.666 8.666c0 .177-.07.347-.195.472s-.294.195-.471.195H3.333c-.177 0-.346-.07-.471-.195s-.195-.295-.195-.472V3.667c0-.177.07-.347.195-.472S3.156 3 3.333 3h3.04c.14 0 .276.043.39.125.114.08.199.196.244.328l.36 1.094c.044.132.13.247.243.328.114.082.25.125.39.125h4.667c.177 0 .346.07.471.195s.195.295.195.472v6.666z"/>
</svg>
