<svg xmlns="http://www.w3.org/2000/svg" width="16" height="16" fill="none" viewBox="0 0 16 16">
    <path fill="#fff" fill-rule="evenodd" d="M.667.583c1.358 0 2.575.794 3.135 2h8.177c1.842 0 3.163 1.776 2.634 3.54l-.587 1.955c-.475 1.586-1.935 2.672-3.591 2.672H7.549c-1.646 0-3.1-1.074-3.584-2.647L2.538 3.466C2.285 2.644 1.526 2.083.667 2.083v-1.5zm4.732 7.079L4.298 4.083h7.68c.838 0 1.438.808 1.198 1.61l-.586 1.954c-.286.951-1.162 1.603-2.155 1.603H7.549c-.988 0-1.86-.644-2.15-1.588zm1.268 5.088c-.322 0-.584.261-.584.583 0 .322.262.584.584.584.322 0 .583-.261.583-.584 0-.322-.261-.583-.583-.583zm-2.084.583c0-1.15.933-2.083 2.084-2.083 1.15 0 2.083.933 2.083 2.083 0 1.15-.933 2.084-2.083 2.084-1.15 0-2.084-.933-2.084-2.084zM12 12.75c-.322 0-.583.261-.583.583 0 .322.26.584.583.584.322 0 .583-.261.583-.584 0-.322-.26-.583-.583-.583zm-2.083.583c0-1.15.932-2.083 2.083-2.083 1.15 0 2.083.933 2.083 2.083 0 1.15-.932 2.084-2.083 2.084-1.15 0-2.083-.933-2.083-2.084z" clip-rule="evenodd"/>
</svg>
