<svg xmlns="http://www.w3.org/2000/svg" width="20" height="20" fill="none" viewBox="0 0 20 20">
    <path fill="#000" d="M17.75 8.4c-.234-.281-.527-.507-.858-.663-.331-.155-.693-.236-1.059-.237h-3.8l.467-1.192c.194-.521.259-1.082.188-1.635-.07-.552-.273-1.079-.592-1.535-.319-.457-.743-.829-1.238-1.085-.494-.256-1.043-.389-1.6-.386-.16 0-.317.047-.451.134-.135.087-.241.211-.307.357L6.125 7.5H4.167c-.663 0-1.3.263-1.768.732-.469.47-.732 1.105-.732 1.768v5.833c0 .663.263 1.3.732 1.768.469.469 1.105.732 1.768.732h10.608c.585 0 1.151-.205 1.6-.58.45-.374.753-.894.858-1.47l1.059-5.833c.065-.36.05-.731-.043-1.085-.094-.355-.264-.684-.499-.965zM5.833 16.667H4.167c-.221 0-.433-.088-.59-.244-.156-.157-.244-.369-.244-.59V10c0-.221.088-.433.244-.59.157-.156.369-.243.59-.243h1.666v7.5zm10.834-6.517l-1.059 5.833c-.035.194-.138.37-.29.495-.153.125-.346.192-.543.189H7.5V8.508l2.267-5.1c.233.068.45.184.636.34.186.156.338.349.447.567.108.217.17.455.181.698.011.243-.027.485-.114.712l-.442 1.192c-.094.252-.126.522-.092.79.033.266.13.52.283.742.153.221.358.402.596.527s.502.19.771.19h3.8c.123 0 .244.027.355.08.11.05.209.127.287.22.08.093.14.203.172.32.033.119.04.243.02.364z"/>
</svg>
