<svg xmlns="http://www.w3.org/2000/svg" width="16" height="16" fill="none" viewBox="0 0 16 16">
    <path fill="#fff" fill-rule="evenodd" d="M13.5 3c0 .828-.672 1.5-1.5 1.5s-1.5-.672-1.5-1.5.672-1.5 1.5-1.5 1.5.672 1.5 1.5zM15 3c0 1.657-1.343 3-3 3-.856 0-1.628-.359-2.175-.934l-3.92 2.179c.062.24.095.494.095.755 0 .26-.033.514-.096.755l3.921 2.179C10.372 10.359 11.144 10 12 10c1.657 0 3 1.343 3 3s-1.343 3-3 3-3-1.343-3-3c0-.26.033-.514.096-.755l-3.921-2.179C4.628 10.641 3.856 11 3 11c-1.657 0-3-1.343-3-3s1.343-3 3-3c.856 0 1.628.359 2.175.934l3.92-2.179C9.034 3.515 9 3.261 9 3c0-1.657 1.343-3 3-3s3 1.343 3 3zm-1.5 10c0 .828-.672 1.5-1.5 1.5s-1.5-.672-1.5-1.5.672-1.5 1.5-1.5 1.5.672 1.5 1.5zm-9-5c0 .828-.672 1.5-1.5 1.5S1.5 8.828 1.5 8 2.172 6.5 3 6.5s1.5.672 1.5 1.5z" clip-rule="evenodd"/>
</svg>
