<svg xmlns="http://www.w3.org/2000/svg" width="20" height="20" fill="none" viewBox="0 0 20 20">
    <g clip-path="url(#clip0)">
        <path fill="#000" d="M18.43 20h-5.06c-.865 0-1.57-.667-1.57-1.486v-6.499H8.2v6.499C8.2 19.333 7.494 20 6.63 20H1.57C.703 20 0 19.333 0 18.514V7.584c0-.447.211-.867.573-1.152L8.12.629c1.086-.839 2.666-.839 3.752 0l7.545 5.803c.373.285.584.705.584 1.153v10.929c0 .819-.704 1.486-1.57 1.486zm-4.617-1.906h4.175V7.784l-7.384-5.678c-.352-.267-.866-.267-1.218 0L2.012 7.785v10.31h4.175v-6.499c0-.82.704-1.486 1.57-1.486h4.497c.865 0 1.569.667 1.569 1.486v6.498h-.01z"/>
    </g>
    <defs>
        <clipPath id="clip0">
            <path fill="#fff" d="M0 0H20V20H0z"/>
        </clipPath>
    </defs>
</svg>
