<svg xmlns="http://www.w3.org/2000/svg" width="20" height="20" fill="none" viewBox="0 0 20 20">
    <path fill="#fff" 
    fill-rule="evenodd" 
    d="M16.875 3.75c0 1.036-.84 1.875-1.875 1.875-1.036 0-1.875-.84-1.875-1.875 0-1.036.84-1.875 1.875-1.875 1.035 0 1.875.84 1.875 1.875zm1.875 0c0 2.071-1.679 3.75-3.75 3.75-1.07 0-2.036-.448-2.719-1.167l-4.9 2.723c.077.301.119.618.119.944 0 .326-.042.643-.12.944l4.901 2.723C12.964 12.948 13.93 12.5 15 12.5c2.071 0 3.75 1.679 3.75 3.75 0 2.071-1.679 3.75-3.75 3.75-2.071 0-3.75-1.679-3.75-3.75 0-.326.042-.643.12-.944l-4.901-2.723c-.684.719-1.649 1.167-2.719 1.167C1.679 13.75 0 12.071 0 10c0-2.071 1.679-3.75 3.75-3.75 1.07 0 2.035.448 2.719 1.167l4.9-2.723c-.077-.301-.119-.618-.119-.944C11.25 1.679 12.929 0 15 0c2.071 0 3.75 1.679 3.75 3.75zm-1.875 12.5c0 1.035-.84 1.875-1.875 1.875-1.036 0-1.875-.84-1.875-1.875 0-1.036.84-1.875 1.875-1.875 1.035 0 1.875.84 1.875 1.875zM5.625 10c0 1.036-.84 1.875-1.875 1.875-1.036 0-1.875-.84-1.875-1.875 0-1.036.84-1.875 1.875-1.875 1.036 0 1.875.84 1.875 1.875z" clip-rule="evenodd"/>
</svg>
