<svg xmlns="http://www.w3.org/2000/svg" width="16" height="16" fill="none" viewBox="0 0 16 16">
    <path fill="#000" d="M10.667 1.333H5.333c-.53 0-1.039.211-1.414.586s-.586.884-.586 1.414V14c0 .117.03.233.089.335.059.102.143.186.245.245.101.059.216.09.333.09.117 0 .232-.031.333-.09L8 12.46l3.667 2.12c.101.058.216.088.333.087.117 0 .232-.03.333-.087.102-.059.187-.143.245-.245.059-.102.09-.218.089-.335V3.333c0-.53-.211-1.039-.586-1.414s-.884-.586-1.414-.586zm.666 11.514l-3-1.734c-.101-.058-.216-.089-.333-.089-.117 0-.232.03-.333.09l-3 1.733V3.333c0-.177.07-.346.195-.471s.295-.195.471-.195h5.334c.177 0 .346.07.471.195s.195.294.195.471v9.514z"/>
</svg>
