<svg xmlns="http://www.w3.org/2000/svg" width="16" height="16" fill="none" viewBox="0 0 16 16">
    <path fill="#fff" fill-rule="evenodd" d="M5.5 3.5c-.53 0-1.04.21-1.414.586C3.71 4.46 3.5 4.97 3.5 5.5c0 .53.21 1.04.586 1.414.375.375.884.586 1.414.586.53 0 1.04-.21 1.414-.586C7.29 6.54 7.5 6.03 7.5 5.5c0-.53-.21-1.04-.586-1.414C6.54 3.71 6.03 3.5 5.5 3.5zM2 5.5c0-.58.144-1.151.42-1.662.275-.51.673-.945 1.158-1.263.484-.319 1.04-.512 1.619-.562.578-.05 1.159.044 1.691.274.533.23 1 .589 1.36 1.044.359.456.6.993.7 1.565.1.571.056 1.158-.127 1.709-.183.55-.5 1.047-.923 1.444.797.387 1.489.96 2.017 1.67.528.712.877 1.54 1.017 2.414.031.197-.017.397-.134.558-.117.161-.293.27-.49.3-.196.032-.397-.016-.558-.133-.16-.117-.269-.293-.3-.49-.151-.939-.632-1.793-1.356-2.41-.724-.616-1.643-.954-2.594-.954-.95 0-1.87.338-2.594.955-.724.616-1.205 1.47-1.356 2.409-.016.097-.05.19-.102.275-.051.084-.119.157-.198.214-.08.058-.17.1-.266.123-.096.023-.196.027-.293.011-.097-.015-.19-.05-.275-.102-.084-.051-.157-.119-.214-.198-.058-.08-.1-.17-.123-.267-.023-.095-.027-.195-.011-.292.14-.874.49-1.702 1.018-2.412s1.22-1.284 2.016-1.67c-.348-.327-.626-.722-.816-1.16C2.096 6.45 2 5.977 2 5.5zM11 4c-.199 0-.39.079-.53.22-.141.14-.22.331-.22.53s.079.39.22.53c.14.141.331.22.53.22.338 0 .667.114.932.325.265.21.451.504.528.833.077.33.041.675-.103.981-.144.306-.388.555-.691.705-.125.062-.23.158-.304.277-.073.118-.112.255-.112.395v.352c0 .168.056.332.16.465.104.132.25.226.414.265 1.2.289 2.162 1.2 2.522 2.372.028.095.075.182.138.259.063.076.14.14.227.186.087.046.183.075.281.085.098.01.197 0 .292-.03.094-.029.182-.076.258-.14.076-.062.14-.14.185-.227.046-.087.075-.183.084-.281.009-.098-.002-.198-.031-.292-.2-.65-.53-1.251-.97-1.769-.44-.518-.981-.94-1.59-1.243.39-.43.649-.964.741-1.538.094-.574.018-1.162-.217-1.694-.236-.531-.62-.983-1.107-1.3C12.15 4.169 11.581 4 11 4z" clip-rule="evenodd"/>
</svg>
