<svg xmlns="http://www.w3.org/2000/svg" width="16" height="16" fill="none" viewBox="0 0 16 16">
    <path fill="#000" d="M8 5.333c-.527 0-1.043.157-1.482.45-.438.293-.78.71-.982 1.197-.202.487-.254 1.023-.151 1.54.102.518.356.993.73 1.366.372.373.847.627 1.365.73.517.102 1.053.05 1.54-.152.488-.202.904-.544 1.197-.982.293-.439.45-.955.45-1.482 0-.707-.281-1.386-.781-1.886S8.707 5.334 8 5.334zm0 4c-.264 0-.521-.078-.74-.224-.22-.147-.39-.355-.492-.599-.1-.243-.127-.511-.076-.77.052-.259.179-.496.365-.683.187-.186.424-.313.683-.365.259-.051.527-.025.77.076.244.101.452.272.599.491.146.22.224.477.224.741 0 .354-.14.693-.39.943s-.59.39-.943.39zm6.473-1.806L12.907 6V3.76c0-.177-.07-.346-.196-.471-.125-.125-.294-.196-.471-.196h-2.207l-1.56-1.566c-.062-.063-.135-.112-.217-.146-.08-.034-.168-.052-.256-.052s-.175.018-.256.052c-.082.034-.155.083-.217.146L6 3.093H3.76c-.177 0-.346.07-.471.196-.125.125-.196.294-.196.471V6L1.527 7.527c-.063.062-.112.135-.146.217-.034.08-.052.168-.052.256s.018.175.052.256c.034.082.083.155.146.217l1.566 1.56v2.207c0 .177.07.346.196.471.125.125.294.196.471.196H6l1.56 1.566c.062.063.136.112.217.146.081.034.168.052.256.052s.175-.018.257-.052c.081-.034.155-.083.217-.146l1.56-1.566h2.206c.177 0 .347-.07.472-.196.125-.125.195-.294.195-.471v-2.207l1.567-1.56c.06-.064.107-.14.138-.222.031-.082.046-.17.042-.258-.003-.088-.023-.175-.06-.255-.037-.08-.089-.152-.154-.211zm-2.7 1.76c-.063.061-.113.135-.147.216-.034.082-.052.169-.053.257v1.813H9.76c-.088 0-.175.019-.257.053-.081.034-.155.084-.216.147L8 13.06l-1.287-1.287c-.061-.063-.135-.113-.216-.147-.082-.034-.169-.052-.257-.053H4.427V9.76c0-.088-.019-.175-.053-.257-.034-.081-.084-.155-.147-.216L2.94 8l1.287-1.287c.063-.061.113-.135.147-.216.034-.082.052-.169.053-.257V4.427H6.24c.088 0 .175-.019.257-.053.081-.034.155-.084.216-.147L8 2.94l1.287 1.287c.061.063.135.113.216.147.082.034.169.052.257.053h1.813V6.24c0 .088.019.175.053.257.034.081.084.155.147.216L13.06 8l-1.287 1.287z"/>
</svg>
