<svg xmlns="http://www.w3.org/2000/svg" width="20" height="20" fill="none" viewBox="0 0 20 20">
    <path fill="#000" fill-rule="evenodd" d="M14.375 8.75c0 .739-.146 1.47-.428 2.153-.283.682-.697 1.302-1.22 1.824-.522.523-1.142.937-1.824 1.22-.683.283-1.414.428-2.153.428-.739 0-1.47-.146-2.153-.428-.682-.283-1.302-.697-1.824-1.22-.523-.522-.937-1.142-1.22-1.824-.283-.683-.428-1.414-.428-2.153 0-1.492.593-2.923 1.648-3.977C5.827 3.718 7.258 3.125 8.75 3.125s2.923.593 3.977 1.648c1.055 1.054 1.648 2.485 1.648 3.977zm-1.025 5.925c-1.507 1.17-3.403 1.722-5.303 1.543-1.9-.18-3.66-1.075-4.921-2.506-1.262-1.431-1.931-3.29-1.872-5.196.06-1.907.844-3.72 2.193-5.069 1.35-1.349 3.162-2.133 5.069-2.193 1.907-.06 3.765.61 5.196 1.872 1.43 1.262 2.327 3.022 2.506 4.921.179 1.9-.373 3.796-1.543 5.303l3.8 3.8c.092.086.166.19.217.304.052.115.079.24.081.365.003.126-.02.251-.068.368-.047.117-.117.223-.206.312-.09.089-.195.159-.312.206-.117.047-.242.07-.368.068-.125-.002-.25-.03-.365-.08-.115-.052-.218-.126-.304-.218l-3.8-3.8z" clip-rule="evenodd"/>
</svg>
