<svg xmlns="http://www.w3.org/2000/svg" width="20" height="20" fill="none" viewBox="0 0 20 20">
    <path fill="#000" d="M10 10.833c-.221 0-.433.088-.59.244-.156.157-.243.369-.243.59v2.5c0 .22.087.433.244.589.156.156.368.244.589.244.221 0 .433-.088.59-.244.155-.156.243-.368.243-.59v-2.5c0-.22-.088-.432-.244-.589-.156-.156-.368-.244-.589-.244zM14.167 7.5H7.5V5.833c-.001-.495.144-.979.419-1.39.274-.413.664-.734 1.12-.924.458-.19.96-.24 1.446-.144s.931.334 1.282.683c.313.32.537.717.65 1.15.027.106.075.206.14.294.067.087.15.161.244.217.094.056.199.092.307.108.109.015.22.009.325-.019.107-.027.206-.075.294-.14.087-.067.161-.15.217-.244.056-.094.092-.199.107-.307.016-.109.01-.22-.018-.325-.19-.721-.566-1.38-1.091-1.909-.584-.581-1.326-.977-2.134-1.136-.807-.16-1.645-.077-2.405.239-.76.315-1.41.85-1.868 1.534-.457.685-.702 1.49-.702 2.313V7.5c-.663 0-1.299.263-1.767.732-.47.47-.733 1.105-.733 1.768v5.833c0 .663.264 1.3.733 1.768.468.469 1.104.732 1.767.732h8.334c.663 0 1.299-.263 1.767-.732.47-.469.733-1.105.733-1.768V10c0-.663-.264-1.299-.733-1.768-.468-.469-1.104-.732-1.767-.732zM15 15.833c0 .221-.088.433-.244.59-.156.156-.368.244-.59.244H5.834c-.22 0-.433-.088-.589-.244-.156-.157-.244-.369-.244-.59V10c0-.221.088-.433.244-.59.156-.156.368-.243.59-.243h8.333c.22 0 .433.087.589.244.156.156.244.368.244.589v5.833z"/>
</svg>
