<svg xmlns="http://www.w3.org/2000/svg" width="20" height="20" fill="none" viewBox="0 0 20 20">
    <path fill="#000" d="M4.167 15H7.7c.11 0 .218-.02.32-.062.102-.041.194-.102.272-.18l5.766-5.775 2.367-2.316c.078-.078.14-.17.183-.272.042-.101.064-.21.064-.32 0-.11-.022-.219-.064-.32-.043-.102-.105-.194-.183-.272l-3.533-3.575c-.078-.078-.17-.14-.271-.182-.102-.042-.21-.064-.32-.064-.11 0-.22.022-.321.064-.102.042-.194.104-.272.182l-2.35 2.359-5.783 5.775c-.077.078-.138.17-.18.271-.041.102-.062.21-.062.32v3.534c0 .22.088.433.244.589.157.156.369.244.59.244zM12.3 3.675l2.358 2.358-1.183 1.184-2.358-2.359L12.3 3.675zm-7.3 7.3l4.942-4.942L12.3 8.392l-4.942 4.941H5v-2.358zm12.5 5.692h-15c-.22 0-.433.087-.59.244-.155.156-.243.368-.243.589 0 .221.088.433.244.59.156.155.368.243.59.243h15c.22 0 .432-.087.588-.244.157-.156.244-.368.244-.589 0-.221-.087-.433-.244-.59-.156-.155-.368-.243-.589-.243z"/>
</svg>
