<svg width="24" height="24" viewBox="0 0 24 24" fill="none" xmlns="http://www.w3.org/2000/svg">
<path d="M10.0314 15.3046C10.7239 15.3046 11.4096 15.1682 12.0493 14.9032C12.6891 14.6382 13.2704 14.2497 13.7601 13.7601C14.2497 13.2704 14.6382 12.6891 14.9032 12.0493C15.1682 11.4096 15.3046 10.7239 15.3046 10.0314C15.3046 9.33888 15.1682 8.65318 14.9032 8.0134C14.6382 7.37363 14.2497 6.79232 13.7601 6.30266C13.2704 5.81299 12.6891 5.42457 12.0493 5.15957C11.4096 4.89457 10.7239 4.75817 10.0314 4.75817C8.63283 4.75817 7.29157 5.31374 6.30266 6.30266C5.31374 7.29157 4.75817 8.63283 4.75817 10.0314C4.75817 11.4299 5.31374 12.7712 6.30266 13.7601C7.29157 14.749 8.63283 15.3046 10.0314 15.3046ZM15.5858 14.3431L18.7321 17.4894C18.816 17.5705 18.8829 17.6676 18.9289 17.7748C18.9749 17.8821 18.999 17.9974 19 18.1141C19.0009 18.2308 18.9786 18.3465 18.9343 18.4545C18.8901 18.5625 18.8247 18.6606 18.7421 18.743C18.6596 18.8255 18.5614 18.8907 18.4534 18.9348C18.3453 18.9789 18.2296 19.0011 18.1129 19C17.9962 18.9989 17.8809 18.9745 17.7737 18.9284C17.6665 18.8823 17.5696 18.8153 17.4886 18.7313L14.3422 15.5849C12.9294 16.6816 11.1517 17.1987 9.37113 17.0308C7.59051 16.863 5.94078 16.0229 4.75778 14.6815C3.57478 13.3401 2.94743 11.5983 3.00345 9.8107C3.05947 8.02307 3.79465 6.32398 5.05931 5.05931C6.32398 3.79465 8.02308 3.05947 9.81071 3.00345C11.5983 2.94743 13.3401 3.57478 14.6815 4.75778C16.0229 5.94078 16.863 7.5905 17.0308 9.37112C17.1987 11.1517 16.6816 12.9294 15.5849 14.3422L15.5858 14.3431Z" fill="black"/>
</svg>
