<svg width="24" height="24" viewBox="0 0 24 24" fill="none" xmlns="http://www.w3.org/2000/svg">
<path d="M7.5 5.75C7.5 6.21413 7.31563 6.65925 6.98744 6.98744C6.65925 7.31563 6.21413 7.5 5.75 7.5C5.28587 7.5 4.84075 7.31563 4.51256 6.98744C4.18437 6.65925 4 6.21413 4 5.75C4 5.28587 4.18437 4.84075 4.51256 4.51256C4.84075 4.18437 5.28587 4 5.75 4C6.21413 4 6.65925 4.18437 6.98744 4.51256C7.31563 4.84075 7.5 5.28587 7.5 5.75ZM7.5 11C7.5 11.4641 7.31563 11.9092 6.98744 12.2374C6.65925 12.5656 6.21413 12.75 5.75 12.75C5.28587 12.75 4.84075 12.5656 4.51256 12.2374C4.18437 11.9092 4 11.4641 4 11C4 10.5359 4.18437 10.0908 4.51256 9.76256C4.84075 9.43437 5.28587 9.25 5.75 9.25C6.21413 9.25 6.65925 9.43437 6.98744 9.76256C7.31563 10.0908 7.5 10.5359 7.5 11ZM5.75 18C6.21413 18 6.65925 17.8156 6.98744 17.4874C7.31563 17.1592 7.5 16.7141 7.5 16.25C7.5 15.7859 7.31563 15.3408 6.98744 15.0126C6.65925 14.6844 6.21413 14.5 5.75 14.5C5.28587 14.5 4.84075 14.6844 4.51256 15.0126C4.18437 15.3408 4 15.7859 4 16.25C4 16.7141 4.18437 17.1592 4.51256 17.4874C4.84075 17.8156 5.28587 18 5.75 18ZM12.75 5.75C12.75 6.21413 12.5656 6.65925 12.2374 6.98744C11.9092 7.31563 11.4641 7.5 11 7.5C10.5359 7.5 10.0908 7.31563 9.76256 6.98744C9.43437 6.65925 9.25 6.21413 9.25 5.75C9.25 5.28587 9.43437 4.84075 9.76256 4.51256C10.0908 4.18437 10.5359 4 11 4C11.4641 4 11.9092 4.18437 12.2374 4.51256C12.5656 4.84075 12.75 5.28587 12.75 5.75ZM11 12.75C11.4641 12.75 11.9092 12.5656 12.2374 12.2374C12.5656 11.9092 12.75 11.4641 12.75 11C12.75 10.5359 12.5656 10.0908 12.2374 9.76256C11.9092 9.43437 11.4641 9.25 11 9.25C10.5359 9.25 10.0908 9.43437 9.76256 9.76256C9.43437 10.0908 9.25 10.5359 9.25 11C9.25 11.4641 9.43437 11.9092 9.76256 12.2374C10.0908 12.5656 10.5359 12.75 11 12.75ZM12.75 16.25C12.75 16.7141 12.5656 17.1592 12.2374 17.4874C11.9092 17.8156 11.4641 18 11 18C10.5359 18 10.0908 17.8156 9.76256 17.4874C9.43437 17.1592 9.25 16.7141 9.25 16.25C9.25 15.7859 9.43437 15.3408 9.76256 15.0126C10.0908 14.6844 10.5359 14.5 11 14.5C11.4641 14.5 11.9092 14.6844 12.2374 15.0126C12.5656 15.3408 12.75 15.7859 12.75 16.25ZM16.25 7.5C16.7141 7.5 17.1592 7.31563 17.4874 6.98744C17.8156 6.65925 18 6.21413 18 5.75C18 5.28587 17.8156 4.84075 17.4874 4.51256C17.1592 4.18437 16.7141 4 16.25 4C15.7859 4 15.3408 4.18437 15.0126 4.51256C14.6844 4.84075 14.5 5.28587 14.5 5.75C14.5 6.21413 14.6844 6.65925 15.0126 6.98744C15.3408 7.31563 15.7859 7.5 16.25 7.5ZM18 11C18 11.4641 17.8156 11.9092 17.4874 12.2374C17.1592 12.5656 16.7141 12.75 16.25 12.75C15.7859 12.75 15.3408 12.5656 15.0126 12.2374C14.6844 11.9092 14.5 11.4641 14.5 11C14.5 10.5359 14.6844 10.0908 15.0126 9.76256C15.3408 9.43437 15.7859 9.25 16.25 9.25C16.7141 9.25 17.1592 9.43437 17.4874 9.76256C17.8156 10.0908 18 10.5359 18 11ZM16.25 18C16.7141 18 17.1592 17.8156 17.4874 17.4874C17.8156 17.1592 18 16.7141 18 16.25C18 15.7859 17.8156 15.3408 17.4874 15.0126C17.1592 14.6844 16.7141 14.5 16.25 14.5C15.7859 14.5 15.3408 14.6844 15.0126 15.0126C14.6844 15.3408 14.5 15.7859 14.5 16.25C14.5 16.7141 14.6844 17.1592 15.0126 17.4874C15.3408 17.8156 15.7859 18 16.25 18Z" fill="black"/>
</svg>
