<svg width="24" height="24" viewBox="0 0 24 24" fill="none" xmlns="http://www.w3.org/2000/svg">
<path d="M5.55556 11.2222C5.12778 11.2222 4.76145 11.0698 4.45656 10.7649C4.15167 10.46 3.99948 10.0939 4 9.66667V6.55556C4 6.12778 4.15245 5.76145 4.45733 5.45656C4.76222 5.15167 5.1283 4.99948 5.55556 5H8.66667C9.09444 5 9.46078 5.15245 9.76567 5.45733C10.0706 5.76222 10.2227 6.1283 10.2222 6.55556V9.66667C10.2222 10.0944 10.0698 10.4608 9.76489 10.7657C9.46 11.0706 9.09393 11.2227 8.66667 11.2222H5.55556ZM5.55556 19C5.12778 19 4.76145 18.8476 4.45656 18.5427C4.15167 18.2378 3.99948 17.8717 4 17.4444V14.3333C4 13.9056 4.15245 13.5392 4.45733 13.2343C4.76222 12.9294 5.1283 12.7773 5.55556 12.7778H8.66667C9.09444 12.7778 9.46078 12.9302 9.76567 13.2351C10.0706 13.54 10.2227 13.9061 10.2222 14.3333V17.4444C10.2222 17.8722 10.0698 18.2386 9.76489 18.5434C9.46 18.8483 9.09393 19.0005 8.66667 19H5.55556ZM13.3333 11.2222C12.9056 11.2222 12.5392 11.0698 12.2343 10.7649C11.9294 10.46 11.7773 10.0939 11.7778 9.66667V6.55556C11.7778 6.12778 11.9302 5.76145 12.2351 5.45656C12.54 5.15167 12.9061 4.99948 13.3333 5H16.4444C16.8722 5 17.2386 5.15245 17.5434 5.45733C17.8483 5.76222 18.0005 6.1283 18 6.55556V9.66667C18 10.0944 17.8476 10.4608 17.5427 10.7657C17.2378 11.0706 16.8717 11.2227 16.4444 11.2222H13.3333ZM13.3333 19C12.9056 19 12.5392 18.8476 12.2343 18.5427C11.9294 18.2378 11.7773 17.8717 11.7778 17.4444V14.3333C11.7778 13.9056 11.9302 13.5392 12.2351 13.2343C12.54 12.9294 12.9061 12.7773 13.3333 12.7778H16.4444C16.8722 12.7778 17.2386 12.9302 17.5434 13.2351C17.8483 13.54 18.0005 13.9061 18 14.3333V17.4444C18 17.8722 17.8476 18.2386 17.5427 18.5434C17.2378 18.8483 16.8717 19.0005 16.4444 19H13.3333ZM5.55556 9.66667H8.66667V6.55556H5.55556V9.66667ZM13.3333 9.66667H16.4444V6.55556H13.3333V9.66667ZM13.3333 17.4444H16.4444V14.3333H13.3333V17.4444ZM5.55556 17.4444H8.66667V14.3333H5.55556V17.4444Z" fill="black"/>
</svg>
