<svg width="24" height="24" viewBox="0 0 24 24" fill="none" xmlns="http://www.w3.org/2000/svg">
<path d="M18 16.3953H4V14.907H4.7V9.72074C4.7 6.00874 7.521 3 11 3C14.479 3 17.3 6.00874 17.3 9.72074V14.907H18V16.3953ZM6.1 14.907H15.9V9.72074C15.9 6.83107 13.7062 4.48837 11 4.48837C8.2938 4.48837 6.1 6.83107 6.1 9.72074V14.907ZM9.25 17.1395H12.75C12.75 17.633 12.5656 18.1062 12.2374 18.4551C11.9092 18.804 11.4641 19 11 19C10.5359 19 10.0908 18.804 9.76256 18.4551C9.43437 18.1062 9.25 17.633 9.25 17.1395Z" fill="black"/>
</svg>
