<svg width="24" height="24" viewBox="0 0 24 24" fill="none" xmlns="http://www.w3.org/2000/svg">
<path d="M17.5263 6.55556V9.66667H6.47368V6.55556H17.5263ZM17.5263 14.3333V17.4444H6.47368V14.3333H17.5263ZM18.2632 5H5.73684C5.33158 5 5 5.35 5 5.77778V10.4444C5 10.8722 5.33158 11.2222 5.73684 11.2222H18.2632C18.6684 11.2222 19 10.8722 19 10.4444V5.77778C19 5.35 18.6684 5 18.2632 5ZM18.2632 12.7778H5.73684C5.33158 12.7778 5 13.1278 5 13.5556V18.2222C5 18.65 5.33158 19 5.73684 19H18.2632C18.6684 19 19 18.65 19 18.2222V13.5556C19 13.1278 18.6684 12.7778 18.2632 12.7778Z" fill="black"/>
</svg>
